<svg id="Слой_2" data-name="Слой 2" xmlns="http://www.w3.org/2000/svg" viewBox="0 0 500 500"><defs><style>.cls-1{fill:#fff;}</style></defs><path class="cls-1" d="M51.8,173.65h173a0,0,0,0,1,0,0V332.4a0,0,0,0,1,0,0H51.8a24.13,24.13,0,0,1-24.13-24.13V197.78A24.13,24.13,0,0,1,51.8,173.65Z"/><path class="cls-1" d="M173,250V81.54c0-17.24,20.66-26.09,33.14-14.19l79.2,75.52,97.45,92.94a19.59,19.59,0,0,1,0,28.38l-97.45,92.94-79.2,75.52C193.64,444.55,173,435.7,173,418.46Z"/><path class="cls-1" d="M392.57,61.9H288.68v44.87h44.79v-.08h59.1a35,35,0,0,1,35,35V366.38a27,27,0,0,1-26.93,26.93h-67a4.56,4.56,0,0,1-.76.07H288.68V438.1H400.6a71.72,71.72,0,0,0,71.72-71.72V141.65A79.74,79.74,0,0,0,392.57,61.9Z"/></svg>